<?xml version="1.0" encoding="utf-8"?>
<!-- Generator: Adobe Illustrator 19.0.0, SVG Export Plug-In . SVG Version: 6.00 Build 0)  -->
<svg version="1.1" id="Layer_1" xmlns="http://www.w3.org/2000/svg" xmlns:xlink="http://www.w3.org/1999/xlink" x="0px" y="0px"
	 viewBox="0 0 612 792" style="enable-background:new 0 0 612 792;" xml:space="preserve">
<style type="text/css">
	.st0{fill:#6669B0;}
	.st1{font-family:'Montserrat-Bold';}
	.st2{font-size:156.014px;}
	.st3{font-size:131.5064px;}
	.st4{fill:#A190C4;}
</style>
<text id="XMLID_1_" transform="matrix(1 0 0 1 79.6512 310.5411)" class="st0 st1 st2">Class</text>
<text id="XMLID_2_" transform="matrix(1 0 0 1 267.1511 412.5045)" class="st0 st1 st3">Ask</text>
<g id="XMLID_3_">
	<g id="XMLID_21_">
		<path id="XMLID_25_" class="st4" d="M152.2,360.4c4.6-4.8,10.7-11.1,14.8-14.5c1.2-1,2.5-2,3.8-3c3.9-3-2.8,1.4,1.5-1
			c-2.4,1.3-2.6,1.4-0.5,0.3c-1.2,0.7-2.5,1.3-3.8,1.8c-1.3,0.6-6.8,1.7-3.2,1.4c4.3-0.3,11.7,0.4,17.2,2.8
			c6.3,2.8,11.3,8,14.2,14.3c2.6,5.6,4.4,13.4-0.3,18.2c-4.9,5-9,10.4-10.4,17.3c-3,14.1,3.9,26.8,16.7,33.1
			c2.3,1.1,8.7-1.1,10.6-1.7c5.4-1.7,11-4.1,16-6.8c2.1-1.1,17.1-9.4,11.8-11.9c-14.1-6.9-19.9-26.5-9.8-39.2
			c2.6-3.3,6.4-5.5,7.9-9.5c1.4-3.6,1.3-8.1,0.6-11.8c-1.5-7.7-6.4-14.4-12.8-18.8c-18.3-12.6-42-5.1-60.5,3.1
			c-20,8.9-36.2,22-51.2,37.7c-6.5,6.8,7.6,3.4,10.1,2.6C134.1,371.8,145.4,367.5,152.2,360.4L152.2,360.4z"/>
	</g>
</g>
</svg>
